<?xml version="1.0" standalone="no"?>
<!DOCTYPE svg PUBLIC "-//W3C//DTD SVG 20010904//EN"
 "http://www.w3.org/TR/2001/REC-SVG-20010904/DTD/svg10.dtd">
<svg version="1.0" xmlns="http://www.w3.org/2000/svg"
 width="83.000000pt" height="83.000000pt" viewBox="0 0 83.000000 83.000000"
 preserveAspectRatio="xMidYMid meet">
<metadata>
Created by potrace 1.14, written by Peter Selinger 2001-2017
</metadata>
<g transform="translate(0.000000,83.000000) scale(0.100000,-0.100000)"
fill="#000000" stroke="none">
<path d="M427 676 c-77 -23 -137 -94 -137 -163 0 -20 -3 -24 -9 -14 -17 26
-121 -11 -121 -43 0 -7 11 -19 25 -26 14 -7 23 -15 21 -17 -2 -3 -14 0 -25 7
-19 10 -21 8 -21 -25 0 -29 6 -39 32 -55 31 -18 42 -42 33 -67 -5 -16 -35 -5
-35 12 0 7 8 16 18 20 15 6 14 8 -8 20 -14 8 -28 14 -32 15 -4 0 -7 -33 -7
-74 0 -81 8 -95 64 -113 44 -14 157 -16 205 -3 53 14 78 39 75 76 -4 39 -3 38
-18 26 -19 -16 -69 -34 -62 -22 3 6 12 10 19 10 19 0 66 39 63 53 -1 7 -18 15
-37 18 -34 6 -34 6 10 8 117 4 204 93 194 201 -11 112 -132 190 -247 156z m90
-56 c9 -16 26 -31 38 -31 19 -2 19 -2 -1 -6 -16 -3 -20 -10 -16 -28 2 -14 11
-30 19 -37 13 -10 19 -8 34 11 22 27 24 47 7 54 -10 4 -10 6 0 6 23 2 25 -30
4 -58 l-20 -28 20 -31 c25 -41 11 -65 -36 -60 -25 2 -35 -3 -48 -24 -22 -35
-51 -36 -72 -3 -17 25 -22 57 -8 52 4 -1 7 3 7 8 0 6 -6 9 -12 9 -7 -1 -13 4
-13 11 0 18 -30 27 -46 14 -8 -6 -14 -22 -14 -35 0 -17 7 -24 28 -27 25 -4 25
-4 -3 -3 -23 1 -31 6 -33 24 -2 13 4 32 13 41 14 17 14 21 -1 48 -18 31 -14
64 8 62 10 0 10 -2 1 -6 -17 -6 -16 -33 2 -58 13 -17 17 -17 29 -5 8 8 17 25
21 38 5 18 2 22 -17 23 -23 1 -23 1 -1 7 12 4 31 19 43 35 28 35 45 34 67 -3z
m-218 -185 c0 -5 -4 -3 -9 5 -5 8 -9 22 -9 30 0 16 17 -16 18 -35z m41 -60
l25 -30 -26 23 c-14 12 -38 23 -55 23 l-29 2 28 4 c17 3 25 9 21 16 -8 14 0 5
36 -38z m-93 29 c-3 -3 -12 -4 -19 -1 -8 3 -5 6 6 6 11 1 17 -2 13 -5z m-17
-28 c0 -8 -5 -18 -11 -22 -14 -8 -33 11 -25 25 10 16 36 13 36 -3z m200 -59
c0 -5 -6 -7 -14 -4 -7 3 -19 1 -25 -4 -8 -6 -8 -5 -1 3 6 8 4 16 -8 24 -14 11
-12 11 16 2 17 -7 32 -16 32 -21z m-163 -3 c-3 -3 -12 -4 -19 -1 -8 3 -5 6 6
6 11 1 17 -2 13 -5z m71 -11 c-10 -2 -28 -2 -40 0 -13 2 -5 4 17 4 22 1 32 -1
23 -4z m-132 -58 c16 -8 22 -15 13 -15 -8 0 -24 7 -35 15 -25 19 -14 19 22 0z
m82 -22 c-10 -2 -26 -2 -35 0 -10 3 -2 5 17 5 19 0 27 -2 18 -5z m122 3 c0 -2
-15 -6 -34 -8 -19 -2 -32 0 -30 4 5 8 64 12 64 4z m-184 -17 c10 -17 -13 -36
-27 -22 -12 12 -4 33 11 33 5 0 12 -5 16 -11z"/>
<path d="M454 615 c-9 -14 -15 -27 -13 -29 11 -11 56 -15 69 -7 12 8 12 13 0
35 -17 33 -35 33 -56 1z"/>
<path d="M437 563 c-12 -12 -7 -22 8 -17 8 4 15 10 15 15 0 11 -14 12 -23 2z"/>
<path d="M500 561 c0 -5 7 -11 15 -15 9 -3 15 0 15 9 0 8 -7 15 -15 15 -8 0
-15 -4 -15 -9z"/>
<path d="M453 543 c-15 -10 -23 -26 -23 -43 0 -23 8 -31 45 -49 53 -25 55 -25
55 -6 0 9 -6 12 -17 8 -14 -5 -13 -3 3 14 10 11 23 20 28 19 5 -1 11 5 14 13
3 10 0 12 -12 8 -9 -4 -15 -3 -11 2 3 5 -8 19 -24 30 -34 24 -30 24 -58 4z
m55 -25 c15 -15 -3 -48 -28 -48 -19 0 -36 32 -25 50 8 14 38 13 53 -2z"/>
<path d="M460 505 c0 -21 30 -31 40 -14 11 17 3 29 -21 29 -10 0 -19 -7 -19
-15z"/>
<path d="M406 511 c-4 -7 -5 -15 -2 -18 9 -9 19 4 14 18 -4 11 -6 11 -12 0z"/>
<path d="M552 478 c-7 -7 -12 -22 -12 -35 0 -19 5 -23 29 -23 38 0 47 15 27
45 -18 28 -27 30 -44 13z"/>
<path d="M447 424 c-11 -11 16 -54 34 -54 20 0 43 35 34 50 -7 11 -58 14 -68
4z"/>
<path d="M200 370 c0 -5 5 -10 10 -10 6 0 10 5 10 10 0 6 -4 10 -10 10 -5 0
-10 -4 -10 -10z"/>
<path d="M200 200 c0 -5 5 -10 10 -10 6 0 10 5 10 10 0 6 -4 10 -10 10 -5 0
-10 -4 -10 -10z"/>
<path d="M107 633 c3 -16 0 -47 -5 -69 -5 -24 -6 -48 -1 -55 7 -11 9 -11 9 1
3 53 11 125 16 129 3 3 12 -3 20 -13 9 -13 11 -23 4 -30 -18 -18 -11 -46 11
-46 17 0 20 5 18 35 -2 19 2 40 8 46 9 9 13 0 18 -35 4 -25 11 -46 15 -46 5 0
5 13 0 28 -4 16 -6 41 -5 55 4 30 -6 35 -25 12 -7 -8 -17 -15 -22 -15 -5 0
-16 7 -24 15 -25 24 -41 18 -37 -12z m59 -70 c-11 -11 -19 6 -11 24 8 17 8 17
12 0 3 -10 2 -21 -1 -24z"/>
<path d="M657 373 c-15 -14 -6 -41 18 -57 47 -31 22 -84 -35 -72 -17 3 -30 2
-30 -3 0 -13 28 -21 48 -14 55 20 69 72 27 105 -14 11 -25 24 -25 30 0 6 10 8
25 4 14 -4 25 -2 25 4 0 11 -43 14 -53 3z"/>
<path d="M205 291 c-3 -5 -1 -12 5 -16 5 -3 10 1 10 9 0 18 -6 21 -15 7z"/>
</g>
</svg>
