<?xml version="1.0" standalone="no"?>
<!DOCTYPE svg PUBLIC "-//W3C//DTD SVG 20010904//EN"
 "http://www.w3.org/TR/2001/REC-SVG-20010904/DTD/svg10.dtd">
<svg version="1.0" xmlns="http://www.w3.org/2000/svg"
 width="83.000000pt" height="83.000000pt" viewBox="0 0 83.000000 83.000000"
 preserveAspectRatio="xMidYMid meet">
<metadata>
Created by potrace 1.14, written by Peter Selinger 2001-2017
</metadata>
<g transform="translate(0.000000,83.000000) scale(0.100000,-0.100000)"
fill="#000000" stroke="none">
<path d="M398 670 c-42 -22 -83 -72 -93 -111 -5 -21 -14 -28 -44 -33 -21 -3
-50 -15 -64 -27 -27 -20 -27 -21 -27 -158 0 -119 2 -140 18 -153 60 -53 268
-52 321 1 13 13 17 32 16 74 -1 37 3 61 12 68 7 6 13 9 13 5 0 -12 55 21 84
51 115 115 24 304 -146 303 -33 -1 -67 -8 -90 -20z m167 -9 c100 -46 135 -151
79 -238 -61 -93 -186 -111 -271 -38 -94 80 -76 216 37 273 54 27 101 28 155 3z
m-261 -193 c8 -29 14 -54 12 -55 -2 -2 -26 1 -54 7 -81 18 -95 57 -30 85 50
22 55 19 72 -37z m-74 -56 c3 -2 -1 -7 -7 -9 -16 -6 -17 -29 -3 -38 17 -10 42
15 30 30 -18 22 82 5 111 -19 15 -11 35 -26 45 -33 17 -10 14 -12 -21 -13 -87
-4 -164 10 -183 33 -6 7 -13 25 -16 40 -4 25 -3 27 17 21 12 -3 24 -9 27 -12z
m120 -93 c47 0 101 2 120 3 29 3 36 -1 38 -18 8 -54 -199 -82 -284 -37 -28 14
-39 27 -40 44 -1 37 4 39 44 22 25 -11 64 -15 122 -14z m160 -84 c0 -49 -40
-68 -147 -72 -119 -3 -176 20 -179 72 0 14 0 25 2 25 1 0 31 -7 66 -16 73 -19
179 -15 224 8 16 9 30 16 32 17 1 1 2 -15 2 -34z"/>
<path d="M462 638 c-7 -7 -12 -18 -12 -24 0 -8 -17 -14 -42 -16 -36 -3 -44 -7
-46 -26 -2 -13 4 -32 13 -41 14 -17 14 -21 -1 -48 -23 -40 -13 -63 27 -63 22
0 40 -9 61 -32 l30 -33 27 33 c20 24 36 32 59 32 43 0 59 29 32 62 -18 24 -18
25 0 53 26 39 11 67 -33 63 -26 -2 -35 2 -49 25 -19 29 -46 35 -66 15z m48
-13 c17 -20 5 -45 -20 -45 -11 0 -23 7 -26 15 -6 15 11 45 26 45 4 0 13 -7 20
-15z m-79 -45 c14 0 11 -16 -10 -41 l-18 -23 -18 28 c-16 23 -16 29 -4 37 8 5
20 7 27 4 8 -3 18 -5 23 -5z m163 4 c20 -8 20 -28 0 -49 -12 -12 -19 -13 -30
-4 -17 14 -18 46 -1 52 6 3 13 6 14 6 1 1 8 -2 17 -5z m-61 -18 c4 -10 1 -13
-8 -9 -8 3 -12 9 -9 14 7 12 11 11 17 -5z m-69 -8 c-5 -8 -2 -9 11 -4 24 9 65
-19 65 -46 0 -11 -8 -27 -17 -34 -11 -8 -13 -13 -5 -14 6 0 12 -4 12 -10 0 -5
-19 1 -42 13 -35 18 -42 27 -40 47 2 14 3 33 3 43 0 9 5 17 10 17 6 0 7 -5 3
-12z m-31 -98 c4 -15 -1 -22 -20 -26 -36 -10 -50 9 -29 41 19 29 39 22 49 -15z
m167 15 c18 -21 5 -45 -25 -45 -20 0 -25 5 -25 23 0 39 26 50 50 22z m-130
-19 c0 -3 -4 -8 -10 -11 -5 -3 -10 -1 -10 4 0 6 5 11 10 11 6 0 10 -2 10 -4z
m43 -25 c18 -7 18 -8 -2 -31 -18 -23 -21 -24 -37 -8 -31 31 -5 57 39 39z"/>
<path d="M464 525 c-9 -23 3 -45 24 -45 25 0 44 23 36 44 -8 20 -53 21 -60 1z
m42 -6 c10 -17 -13 -36 -27 -22 -12 12 -4 33 11 33 5 0 12 -5 16 -11z"/>
<path d="M210 302 c0 -24 8 -32 26 -25 22 8 17 43 -6 43 -13 0 -20 -7 -20 -18z
m25 -2 c3 -5 1 -10 -4 -10 -6 0 -11 5 -11 10 0 6 2 10 4 10 3 0 8 -4 11 -10z"/>
<path d="M213 224 c-8 -20 17 -36 34 -22 10 8 10 14 2 24 -15 18 -28 18 -36
-2z"/>
<path d="M120 658 c0 -2 -3 -30 -5 -64 -2 -34 -5 -66 -7 -72 -2 -5 1 -12 6
-13 5 -2 11 25 13 61 2 35 5 66 7 68 2 1 11 -4 20 -13 12 -13 13 -20 4 -34 -6
-10 -8 -27 -4 -37 7 -18 9 -18 27 4 14 18 16 29 9 42 -7 13 -5 21 5 30 12 10
15 9 16 -9 1 -11 3 -25 4 -31 1 -5 3 -17 4 -25 0 -8 4 -15 9 -15 4 0 5 25 4
55 -2 30 -6 55 -10 55 -3 0 -13 -7 -23 -16 -16 -15 -20 -15 -41 0 -20 14 -37
20 -38 14z m60 -83 c0 -8 -4 -15 -10 -15 -5 0 -10 7 -10 15 0 8 5 15 10 15 6
0 10 -7 10 -15z"/>
<path d="M679 393 c-31 -7 -29 -41 2 -64 16 -11 29 -29 29 -39 0 -25 -35 -43
-66 -36 -14 4 -24 2 -24 -4 0 -5 3 -10 8 -11 4 0 16 -2 26 -4 11 -2 31 8 47
24 33 33 30 67 -7 83 -33 15 -32 42 1 34 14 -4 25 -2 25 3 0 11 -20 18 -41 14z"/>
</g>
</svg>
